{"title":"Amazon Prime Video - Zakir Khan - Haq Se Single - Standup comedy","magnet":"magnet:?xt=urn:btih:941e7d4e3ff564f6b0e853ddd6838d1bd8137014&dn=Amazon+Prime+Video+-+Zakir+Khan+-+Haq+Se+Single+-+Standup+comedy&tr=udp%3A%2F%2Ftracker.leechers-paradise.org%3A6969&tr=udp%3A%2F%2Fzer0day.ch%3A1337&tr=udp%3A%2F%2Fopen.demonii.com%3A1337&tr=udp%3A%2F%2Ftracker.coppersurfer.tk%3A6969&tr=udp%3A%2F%2Fexodus.desync.com%3A6969","uploader":"th3pirat3","categoryP":"video","categoryS":"other","size":"595571702","seeders":"0","leechers":"0","description":"Amazon Prime Video - Zakir Khan - Haq Se Single - Standup comedy\r\nWebrip Decent Quality FLV Stream\r\n\r\nDownload - Watch - Seed\r\n\r\n\r\n** Technical Data*\r\n\r\n\r\nGeneral\r\nComplete name                    : Amazon Prime - Zakir Khan - Haq Se Single.flv\r\nFormat                           : Flash Video\r\nFile size                        : 568 MiB\r\nDuration                         : 1h 32mn\r\nOverall bit rate                 : 863 Kbps\r\nWriting application              : Lavf57.66.102\r\n\r\nVideo\r\nFormat                           : AVC\r\nFormat/Info                      : Advanced Video Codec\r\nFormat profile                   : <a class=\"__cf_email__\" href=\"/cdn-cgi/l/email-protection\" data-cfemail=\"a3ebcac4cbe3ef908d92\">[email&#xA0;protected]</a><script data-cfhash=\"f9e31\" type=\"text/javascript\">/* <![CDATA[ */!function(t,e,r,n,c,a,p){try{t=document.currentScript||function(){for(t=document.getElementsByTagName('script'),e=t.length;e--;)if(t[e].getAttribute('data-cfhash'))return t[e]}();if(t&&(c=t.previousSibling)){p=t.parentNode;if(a=c.getAttribute('data-cfemail')){for(e='',r='0x'+a.substr(0,2)|0,n=2;a.length-n;n+=2)e+='%'+('0'+('0x'+a.substr(n,2)^r).toString(16)).slice(-2);p.replaceChild(document.createTextNode(decodeURIComponent(e)),c)}p.removeChild(t)}}catch(u){}}()/* ]]> */</script>\r\nFormat settings, CABAC           : Yes\r\nFormat settings, ReFrames        : 2 frames\r\nCodec ID                         : 7\r\nDuration                         : 1h 32mn\r\nBit rate                         : 2 441 Kbps\r\nWidth                            : 908 pixels\r\nHeight                           : 512 pixels\r\nDisplay aspect ratio             : 16:9\r\nFrame rate mode                  : Constant\r\nFrame rate                       : 30.000 fps\r\nColor space                      : YUV\r\nChroma subsampling               : 4:2:0\r\nBit depth                        : 8 bits\r\nScan type                        : Progressive\r\nBits/(Pixel*Frame)               : 0.175\r\nStream size                      : 1.57 GiB\r\n\r\nAudio\r\nFormat                           : AAC\r\nFormat/Info                      : Advanced Audio Codec\r\nFormat profile                   : LC\r\nCodec ID                         : 10\r\nDuration                         : 1h 32mn\r\nBit rate                         : 125 Kbps\r\nChannel(s)                       : 2 channels\r\nChannel positions                : Front: L R\r\nSampling rate                    : 44.1 KHz\r\nCompression mode                 : Lossy\r\nStream size                      : 82.3 MiB (14%)","last_updated":"2017-07-09T12:00:22.641Z","parsed":{"xt":"urn:btih:941e7d4e3ff564f6b0e853ddd6838d1bd8137014","dn":"Amazon Prime Video - Zakir Khan - Haq Se Single - Standup comedy","tr":["udp://exodus.desync.com:6969","udp://open.demonii.com:1337","udp://tracker.coppersurfer.tk:6969","udp://tracker.leechers-paradise.org:6969","udp://zer0day.ch:1337"],"infoHash":"941e7d4e3ff564f6b0e853ddd6838d1bd8137014","infoHashBuffer":{"type":"Buffer","data":[148,30,125,78,63,245,100,246,176,232,83,221,214,131,141,27,216,19,112,20]},"name":"Amazon Prime Video - Zakir Khan - Haq Se Single - Standup comedy","announce":["udp://exodus.desync.com:6969","udp://open.demonii.com:1337","udp://tracker.coppersurfer.tk:6969","udp://tracker.leechers-paradise.org:6969","udp://zer0day.ch:1337"],"urlList":[]}}